<svg xmlns="http://www.w3.org/2000/svg" width="301.04" height="109.07" viewBox="0 0 301.04 109.07"><title>bistro</title><path d="M96.84,91.51h15.29a18.48,18.48,0,0,1,4.38.53,11.3,11.3,0,0,1,3.85,1.71,8.88,8.88,0,0,1,3.79,7.62,8,8,0,0,1-1.88,5.48,10.46,10.46,0,0,1-4.93,3.11v.11a10.26,10.26,0,0,1,6.09,2.88,8.6,8.6,0,0,1,2.38,6.37,10.58,10.58,0,0,1-1.27,5.4,10.28,10.28,0,0,1-3.35,3.52,14.59,14.59,0,0,1-4.77,1.91,25.55,25.55,0,0,1-5.45.58H96.84Zm7,15.95H110a8.69,8.69,0,0,0,5.31-1.38,4.64,4.64,0,0,0,1.83-3.93,4,4,0,0,0-1.88-3.77,12,12,0,0,0-5.87-1.11h-5.6Zm0,17.4h6.26a25.11,25.11,0,0,0,2.88-.19,9.38,9.38,0,0,0,2.86-.81,5.69,5.69,0,0,0,2.16-1.77,5.13,5.13,0,0,0,.85-3.1q0-3.1-2.1-4.32a13,13,0,0,0-6.37-1.22h-6.54Z" transform="translate(-42.51 -56.36)" fill="#231f20"/><path d="M132.68,91.51h7v39.22h-7Z" transform="translate(-42.51 -56.36)" fill="#231f20"/><path d="M168.3,99.71a8.43,8.43,0,0,0-3.13-2.41,9.24,9.24,0,0,0-4.07-1,10.1,10.1,0,0,0-2.43.3,7.38,7.38,0,0,0-2.22,1,5.1,5.1,0,0,0-1.64,1.66,4.59,4.59,0,0,0-.63,2.46,4.36,4.36,0,0,0,.55,2.27,5,5,0,0,0,1.53,1.61,10.29,10.29,0,0,0,2.35,1.16c.92.34,1.94.67,3,1s2.55.87,3.9,1.39a14.72,14.72,0,0,1,3.71,2.05,10.13,10.13,0,0,1,2.77,3.21,9.79,9.79,0,0,1,1.08,4.82,12.25,12.25,0,0,1-1.16,5.51,11.52,11.52,0,0,1-3.1,3.91,13.18,13.18,0,0,1-4.54,2.32,19.07,19.07,0,0,1-5.49.78,20.63,20.63,0,0,1-7.48-1.41,14.54,14.54,0,0,1-6-4.19l5-4.65a10,10,0,0,0,3.85,3.16,10.87,10.87,0,0,0,4.73,1.16,11,11,0,0,0,2.5-.3,6.8,6.8,0,0,0,2.29-1,5.75,5.75,0,0,0,1.67-1.8A5.25,5.25,0,0,0,166,120a4.36,4.36,0,0,0-.72-2.57,6.16,6.16,0,0,0-1.94-1.77,13.77,13.77,0,0,0-2.88-1.31L157,113.17a34,34,0,0,1-3.54-1.33,11.84,11.84,0,0,1-3.19-2,9.9,9.9,0,0,1-2.3-3.13,10.73,10.73,0,0,1-.88-4.62,10.16,10.16,0,0,1,1.24-5.16,11,11,0,0,1,3.27-3.57,14.79,14.79,0,0,1,4.6-2.11,20.16,20.16,0,0,1,5.24-.69,18.68,18.68,0,0,1,6.06,1,15.06,15.06,0,0,1,5.35,3.16Z" transform="translate(-42.51 -56.36)" fill="#231f20"/><path d="M187.14,97.6h-12V91.51h31V97.6h-12v33.13h-7Z" transform="translate(-42.51 -56.36)" fill="#231f20"/><path d="M210.68,91.51h13.63a24.35,24.35,0,0,1,5.37.58A14,14,0,0,1,234.31,94a10,10,0,0,1,3.24,3.49,10.6,10.6,0,0,1,1.22,5.26,10,10,0,0,1-2.41,7,12.19,12.19,0,0,1-6.56,3.63l10.46,17.39h-8.42l-9.08-16.62h-5.1v16.62h-7Zm12.69,16.9a20.07,20.07,0,0,0,3-.23,8.39,8.39,0,0,0,2.69-.83,5.12,5.12,0,0,0,2-1.74,5,5,0,0,0,.78-2.91,4.47,4.47,0,0,0-.72-2.63,5.44,5.44,0,0,0-1.83-1.64,7.87,7.87,0,0,0-2.52-.83,18.71,18.71,0,0,0-2.74-.22h-6.32v11Z" transform="translate(-42.51 -56.36)" fill="#231f20"/><path d="M243.64,111a22,22,0,0,1,1.58-8.5,18.71,18.71,0,0,1,4.38-6.46,19.35,19.35,0,0,1,6.65-4.1,23.73,23.73,0,0,1,8.39-1.44A24.23,24.23,0,0,1,273.12,92a19.66,19.66,0,0,1,6.7,4.1,18.49,18.49,0,0,1,4.4,6.46,21.79,21.79,0,0,1,1.58,8.5,21.48,21.48,0,0,1-1.58,8.39,19.39,19.39,0,0,1-4.4,6.54,19.88,19.88,0,0,1-6.7,4.26,23,23,0,0,1-8.48,1.53,22.48,22.48,0,0,1-8.39-1.53,19.32,19.32,0,0,1-11-10.8A21.66,21.66,0,0,1,243.64,111Zm7.59,0a16.79,16.79,0,0,0,1,5.79,13.56,13.56,0,0,0,2.77,4.57,12.71,12.71,0,0,0,4.27,3,13.44,13.44,0,0,0,5.46,1.08,13.64,13.64,0,0,0,5.48-1.08,12.69,12.69,0,0,0,4.29-3,13.4,13.4,0,0,0,2.77-4.57,16.55,16.55,0,0,0,1-5.79,16,16,0,0,0-1-5.65,13.62,13.62,0,0,0-2.74-4.54,12.59,12.59,0,0,0-4.26-3,13.5,13.5,0,0,0-5.54-1.11,13.28,13.28,0,0,0-5.52,1.11,12.81,12.81,0,0,0-4.24,3,13.78,13.78,0,0,0-2.74,4.54A16.23,16.23,0,0,0,251.23,111Z" transform="translate(-42.51 -56.36)" fill="#231f20"/><rect x="14.56" y="10.67" width="275.44" height="87.91" fill="none" stroke="#231f20" stroke-miterlimit="10"/><rect x="1.5" y="1.5" width="298.04" height="106.07" fill="none" stroke="#231f20" stroke-miterlimit="10" stroke-width="3"/></svg>